<svg fill="none" height="14" viewBox="0 0 12 14" width="12" xmlns="http://www.w3.org/2000/svg"><path d="m11.92 6.62c-.0476-.12275-.119-.23489-.21-.33l-5-5c-.09324-.09324-.20393-.1672-.32575-.21766s-.25239-.076429-.38425-.076429c-.2663 0-.5217.105789-.71.294089-.09324.09324-.1672.20393-.21766.32575-.05046.12183-.07643.25239-.07643.38425 0 .2663.10579.5217.29409.71l3.3 3.29h-7.59c-.265216 0-.51957.10536-.707107.2929-.187536.18753-.292893.44189-.292893.7071 0 .26522.105357.51957.292893.70711.187537.18754.441891.29289.707107.29289h7.59l-3.3 3.29c-.09373.093-.16812.2036-.21889.3254-.05077.1219-.07691.2526-.07691.3846s.02614.2627.07691.3846c.05077.1218.12516.2324.21889.3254.09296.0937.20356.1681.32542.2189s.25257.0769.38458.0769.26272-.0261.38458-.0769.23246-.1252.32542-.2189l5-5c.091-.0951.1624-.20725.21-.33.1-.24346.1-.51654 0-.76z" fill="currentColor"/></svg>
